<svg width="46" height="36" viewBox="0 0 46 36" fill="none" xmlns="http://www.w3.org/2000/svg">
<path d="M39.928 22.808H33.256L32.152 26H28.624L34.648 9.224H38.56L44.584 26H41.032L39.928 22.808ZM39.016 20.12L36.592 13.112L34.168 20.12H39.016Z" fill="#122C51"/>
<path d="M21.449 23.739H16.723L15.941 26H13.442L17.709 14.117H20.48L24.747 26H22.231L21.449 23.739ZM20.803 21.835L19.086 16.871L17.369 21.835H20.803Z" fill="#122C51"/>
<path d="M5.964 24.404H2.628L2.076 26H0.312L3.324 17.612H5.28L8.292 26H6.516L5.964 24.404ZM5.508 23.06L4.296 19.556L3.084 23.06H5.508Z" fill="#122C51"/>
</svg>
