<svg width="58" height="70" viewBox="0 0 58 70" fill="none" xmlns="http://www.w3.org/2000/svg">
<path d="M30.1818 2.37293C29.5932 2.37308 29.0287 2.607 28.6124 3.02325C28.1962 3.4395 27.9622 4.00401 27.9621 4.59267V8.29946H15.7477C15.1591 8.29961 14.5946 8.53353 14.1783 8.94978C13.7621 9.36602 13.5281 9.93054 13.528 10.5192V19.6699H9.08851C8.77752 19.67 8.47003 19.7354 8.18595 19.862C7.90186 19.9885 7.64751 20.1732 7.43935 20.4043C7.23119 20.6353 7.07388 20.9075 6.97758 21.2032C6.88128 21.4989 6.84814 21.8115 6.88032 22.1208L8.58334 38.39C6.71183 39.8753 5.31127 41.8715 4.5514 44.1367C3.79153 46.402 3.70496 48.839 4.3022 51.1524L7.86501 65.0017C7.72709 64.9484 7.58845 64.8936 7.44538 64.8364C5.80068 64.1112 4.01679 63.756 2.21974 63.7959C1.63103 63.7959 1.06643 64.0298 0.650148 64.4461C0.233866 64.8624 0 65.427 0 66.0157C0 66.6044 0.233866 67.169 0.650148 67.5853C1.06643 68.0015 1.63103 68.2354 2.21974 68.2354C3.45111 68.1992 4.67434 68.4464 5.795 68.958C7.45152 69.6442 9.22703 69.9973 11.0201 69.997C12.8131 69.9968 14.5885 69.6432 16.2448 68.9565C17.3764 68.4803 18.5918 68.2351 19.8195 68.2354C21.0473 68.2356 22.2625 68.4813 23.3939 68.958C25.0507 69.6442 26.8265 69.9973 28.6197 69.997C30.413 69.9968 32.1886 69.6432 33.8452 68.9565C34.9766 68.4805 36.1917 68.2354 37.4191 68.2354C38.6465 68.2354 39.8615 68.4805 40.9929 68.9565C42.6371 69.6816 44.4205 70.0368 46.2171 69.997C46.2694 69.997 46.3137 69.9936 46.365 69.9931L46.3963 69.997C46.408 69.997 46.4185 69.9915 46.4302 69.9913C48.1555 70.0021 49.8638 69.6501 51.4442 68.9579C52.5659 68.4463 53.7901 68.199 55.0224 68.2354C55.6111 68.2354 56.1757 68.0015 56.592 67.5852C57.0083 67.1689 57.2421 66.6043 57.2421 66.0156C57.2421 65.4269 57.0083 64.8623 56.592 64.446C56.1757 64.0297 55.6111 63.7959 55.0224 63.7959C53.2246 63.7564 51.44 64.1111 49.7939 64.8349C49.6613 64.8882 49.5324 64.9397 49.4043 64.9895L52.9616 51.1523C53.5601 48.8391 53.4744 46.402 52.715 44.1365C51.9556 41.8711 50.5551 39.8747 48.6834 38.3895L50.3864 22.1208C50.4185 21.8115 50.3854 21.4989 50.2891 21.2032C50.1928 20.9075 50.0355 20.6353 49.8273 20.4043C49.6192 20.1732 49.3648 19.9885 49.0807 19.862C48.7966 19.7354 48.4892 19.67 48.1782 19.6699H43.7387V10.5192C43.7385 9.93054 43.5046 9.36602 43.0884 8.94977C42.6721 8.53352 42.1076 8.29961 41.519 8.29946H37.909V2.21974C37.909 1.63103 37.6751 1.06643 37.2589 0.650148C36.8426 0.233866 36.278 0 35.6893 0C35.1006 0 34.536 0.233866 34.1197 0.650148C33.7034 1.06643 33.4695 1.63103 33.4695 2.21974V8.29946H32.4016V4.59267C32.4014 4.00401 32.1675 3.4395 31.7512 3.02325C31.335 2.607 30.7705 2.37308 30.1818 2.37293ZM48.6624 50.0454L44.7 65.453C43.9914 65.334 43.3005 65.1269 42.6433 64.8364C40.9873 64.1497 39.2121 63.7961 37.4193 63.7959C35.6265 63.7956 33.8512 64.1487 32.195 64.8349C31.0633 65.3116 29.8478 65.5573 28.6198 65.5575C27.3919 65.5578 26.1763 65.3126 25.0444 64.8364C23.3881 64.1497 21.6127 63.7962 19.8197 63.7959C18.0266 63.7957 16.2511 64.1487 14.5946 64.8349C13.9461 65.1223 13.2647 65.3286 12.5657 65.4491L8.60294 50.0454C8.17621 48.4043 8.28525 46.6697 8.91416 45.095C9.54307 43.5203 10.6589 42.1878 12.0987 41.2922L26.4129 32.3491V44.1912C26.4129 44.7799 26.6468 45.3445 27.063 45.7607C27.4793 46.177 28.0439 46.4109 28.6326 46.4109C29.2213 46.4109 29.7859 46.177 30.2022 45.7607C30.6185 45.3445 30.8524 44.7799 30.8524 44.1912V32.3489L45.168 41.2921L45.1693 41.2927C46.6087 42.1886 47.7241 43.5211 48.3525 45.0957C48.9809 46.6704 49.0895 48.4047 48.6624 50.0454ZM45.7142 24.1093L44.5063 35.6431L29.809 26.4621C29.7857 26.4476 29.7588 26.443 29.7352 26.4294C29.602 26.3529 29.4611 26.2906 29.3149 26.2434C29.2697 26.2288 29.2259 26.2133 29.1801 26.2016C28.8222 26.1 28.4431 26.1 28.0853 26.2016C28.0393 26.2133 27.9956 26.2289 27.9502 26.2435C27.8042 26.2907 27.6635 26.3529 27.5304 26.4293C27.5068 26.443 27.4797 26.4476 27.4563 26.4621L12.7606 35.6431L11.5525 24.1093H45.7143H45.7142ZM39.2992 12.739V19.6699H17.9675V12.7389L39.2992 12.739Z" fill="white"/>
</svg>
