<svg width="62" height="66" viewBox="0 0 62 66" fill="none" xmlns="http://www.w3.org/2000/svg">
<path d="M3.23071 -4.66031e-06L48.923 -6.65758e-07C49.5963 -6.06901e-07 50.2419 0.267448 50.718 0.743499C51.194 1.21955 51.4615 1.86522 51.4615 2.53846L51.4615 33C51.4615 33.6732 51.194 34.3189 50.718 34.795C50.2419 35.271 49.5963 35.5385 48.923 35.5385C48.2498 35.5385 47.6041 35.271 47.128 34.795C46.652 34.3189 46.3845 33.6732 46.3845 33L46.3846 5.07693L5.76917 5.07692L5.76916 58.3846C5.76916 59.0579 6.03661 59.7035 6.51266 60.1796C6.98871 60.6556 7.63438 60.9231 8.30763 60.9231L53.9999 60.9231C54.6732 60.9231 55.3188 61.1905 55.7949 61.6666C56.2709 62.1426 56.5384 62.7883 56.5384 63.4615C56.5384 64.1348 56.2709 64.7804 55.7949 65.2565C55.3188 65.7326 54.6732 66 53.9999 66L8.30762 66C6.2879 66 4.35089 65.1977 2.92273 63.7695C1.49457 62.3413 0.692238 60.4043 0.692239 58.3846L0.692243 2.53846C0.692243 1.86521 0.959688 1.21955 1.43574 0.743495C1.91179 0.267444 2.55746 -4.71916e-06 3.23071 -4.66031e-06Z" fill="white"/>
<path d="M48.9231 30.4615L59.0769 30.4615C59.7501 30.4615 60.3958 30.729 60.8719 31.205C61.3479 31.6811 61.6154 32.3268 61.6154 33L61.6154 58.3846C61.6154 60.4043 60.813 62.3413 59.3849 63.7695C57.9567 65.1977 56.0197 66 54 66C51.9802 66 50.0432 65.1977 48.6151 63.7695C47.1869 62.3413 46.3846 60.4043 46.3846 58.3846L46.3846 33C46.3846 32.3268 46.652 31.6811 47.1281 31.205C47.6041 30.729 48.2498 30.4615 48.9231 30.4615ZM56.5384 35.5385L51.4615 35.5385L51.4615 58.3846C51.4615 59.0579 51.729 59.7035 52.205 60.1796C52.6811 60.6556 53.3267 60.9231 54 60.9231C54.6732 60.9231 55.3189 60.6556 55.7949 60.1796C56.271 59.7035 56.5384 59.0579 56.5384 58.3846L56.5384 35.5385Z" fill="white"/>
<path d="M13.3846 25.3846L28.6153 25.3846C29.2886 25.3846 29.9343 25.652 30.4103 26.1281C30.8864 26.6042 31.1538 27.2498 31.1538 27.9231C31.1538 28.5963 30.8864 29.242 30.4103 29.718C29.9343 30.1941 29.2886 30.4615 28.6153 30.4615L13.3846 30.4615C12.7113 30.4615 12.0657 30.1941 11.5896 29.718C11.1136 29.242 10.8461 28.5963 10.8461 27.9231C10.8461 27.2498 11.1136 26.6042 11.5896 26.1281C12.0657 25.652 12.7113 25.3846 13.3846 25.3846Z" fill="white"/>
<path d="M13.3845 15.2308L38.7691 15.2308C39.4423 15.2308 40.088 15.4982 40.5641 15.9743C41.0401 16.4503 41.3076 17.096 41.3076 17.7692C41.3076 18.4425 41.0401 19.0881 40.5641 19.5642C40.088 20.0402 39.4423 20.3077 38.7691 20.3077L13.3845 20.3077C12.7112 20.3077 12.0656 20.0402 11.5895 19.5642C11.1135 19.0881 10.846 18.4425 10.846 17.7692C10.846 17.096 11.1135 16.4503 11.5895 15.9743C12.0656 15.4982 12.7112 15.2308 13.3845 15.2308Z" fill="white"/>
<path d="M13.3847 35.5385L33.6924 35.5385C34.3656 35.5385 35.0113 35.8059 35.4873 36.282C35.9634 36.758 36.2308 37.4037 36.2308 38.0769C36.2308 38.7502 35.9634 39.3958 35.4873 39.8719C35.0113 40.3479 34.3656 40.6154 33.6924 40.6154L13.3847 40.6154C12.7114 40.6154 12.0658 40.3479 11.5897 39.8719C11.1137 39.3958 10.8462 38.7502 10.8462 38.0769C10.8462 37.4037 11.1137 36.758 11.5897 36.282C12.0658 35.8059 12.7114 35.5385 13.3847 35.5385Z" fill="white"/>
</svg>
