<svg width="190" height="56" viewBox="0 0 190 56" fill="none" xmlns="http://www.w3.org/2000/svg">
<path fill-rule="evenodd" clip-rule="evenodd" d="M37.0286 4.79999C38.1553 4.79999 39.0857 5.70456 39.0857 6.79999V18.8C39.0857 19.8954 38.1553 20.8 37.0286 20.8H6.17144C5.04471 20.8 4.1143 19.8954 4.1143 18.8V6.79999C4.1143 5.70456 5.04471 4.79999 6.17144 4.79999H37.0286ZM43.2 6.79999C43.2 3.49542 40.4276 0.799988 37.0286 0.799988H6.17144C2.77245 0.799988 1.14441e-05 3.49542 1.14441e-05 6.79999V18.8C1.14441e-05 22.1046 2.77245 24.8 6.17144 24.8H37.0286C40.4276 24.8 43.2 22.1046 43.2 18.8V6.79999Z" fill="#0B8BCA"/>
<path fill-rule="evenodd" clip-rule="evenodd" d="M49.8857 7.31218V19.4834C49.8852 19.4839 49.8847 19.4843 49.8841 19.4848C49.8768 19.491 49.8683 19.4973 49.8589 19.5031L43.7143 14.4939V12.3432L49.8857 7.31218ZM47.3399 4.11154C49.8865 2.01796 54 3.71681 54 7.30946V19.5277C54 21.2486 52.9145 22.5454 51.68 23.1564C50.4475 23.7664 48.715 23.8559 47.3402 22.7259L40.3494 17.0269C39.8749 16.6401 39.6 16.0635 39.6 15.455V11.3822C39.6 10.7737 39.8749 10.1971 40.3494 9.81027L47.3399 4.11154Z" fill="#0B8BCA"/>
<path fill-rule="evenodd" clip-rule="evenodd" d="M20.4 8.59999C20.4 7.60588 19.433 6.79999 18.24 6.79999H11.76C10.5671 6.79999 9.60002 7.60588 9.60002 8.59999C9.60002 9.5941 10.5671 10.4 11.76 10.4H18.24C19.433 10.4 20.4 9.5941 20.4 8.59999Z" fill="#0B8BCA"/>
<path fill-rule="evenodd" clip-rule="evenodd" d="M30 29C30 28.0059 29.0867 27.2 27.96 27.2H11.64C10.5133 27.2 9.6 28.0059 9.6 29C9.6 29.9941 10.5133 30.8 11.64 30.8H27.96C29.0867 30.8 30 29.9941 30 29Z" fill="#0B8BCA"/>
<path fill-rule="evenodd" clip-rule="evenodd" d="M1.79998 36.8C0.805863 36.8 -2.43187e-05 37.7551 -2.43187e-05 38.9333V53.8667C-2.43187e-05 55.0449 0.805863 56 1.79998 56C2.79409 56 3.59998 55.0449 3.59998 53.8667V38.9333C3.59998 37.7551 2.79409 36.8 1.79998 36.8Z" fill="#0B8BCA"/>
<path fill-rule="evenodd" clip-rule="evenodd" d="M20.7273 29.6C19.5826 29.6 18.6546 30.4682 18.6546 31.5393V35.0301C18.6546 36.7684 17.4996 38.3895 15.7848 39.058L15.7427 39.0749L1.23391 45.0869C0.187241 45.5206 -0.28549 46.6661 0.178034 47.6454C0.641558 48.6248 1.86581 49.0671 2.91247 48.6334L17.4017 42.6295C20.6487 41.3535 22.8 38.3266 22.8 35.0301V31.5393C22.8 30.4682 21.872 29.6 20.7273 29.6Z" fill="#0B8BCA"/>
<path d="M83.601 35L76.757 26.01V35H71.798V14.642H76.757V23.574L83.543 14.642H89.372L81.484 24.618L89.662 35H83.601ZM91.0327 26.88C91.0327 25.2173 91.342 23.7577 91.9607 22.501C92.5987 21.2443 93.459 20.2777 94.5417 19.601C95.6244 18.9243 96.8327 18.586 98.1667 18.586C99.3074 18.586 100.303 18.818 101.154 19.282C102.024 19.746 102.691 20.355 103.155 21.109V18.818H108.114V35H103.155V32.709C102.671 33.463 101.995 34.072 101.125 34.536C100.274 35 99.2784 35.232 98.1377 35.232C96.823 35.232 95.6244 34.8937 94.5417 34.217C93.459 33.521 92.5987 32.5447 91.9607 31.288C91.342 30.012 91.0327 28.5427 91.0327 26.88ZM103.155 26.909C103.155 25.6717 102.807 24.6953 102.111 23.98C101.434 23.2647 100.603 22.907 99.6167 22.907C98.6307 22.907 97.7897 23.2647 97.0937 23.98C96.417 24.676 96.0787 25.6427 96.0787 26.88C96.0787 28.1173 96.417 29.1033 97.0937 29.838C97.7897 30.5533 98.6307 30.911 99.6167 30.911C100.603 30.911 101.434 30.5533 102.111 29.838C102.807 29.1227 103.155 28.1463 103.155 26.909ZM132.349 18.644C134.36 18.644 135.955 19.253 137.134 20.471C138.333 21.689 138.932 23.3807 138.932 25.546V35H134.002V26.213C134.002 25.169 133.722 24.3667 133.161 23.806C132.62 23.226 131.866 22.936 130.899 22.936C129.933 22.936 129.169 23.226 128.608 23.806C128.067 24.3667 127.796 25.169 127.796 26.213V35H122.866V26.213C122.866 25.169 122.586 24.3667 122.025 23.806C121.484 23.226 120.73 22.936 119.763 22.936C118.797 22.936 118.033 23.226 117.472 23.806C116.931 24.3667 116.66 25.169 116.66 26.213V35H111.701V18.818H116.66V20.848C117.163 20.1713 117.82 19.6397 118.632 19.253C119.444 18.847 120.363 18.644 121.387 18.644C122.605 18.644 123.688 18.905 124.635 19.427C125.602 19.949 126.356 20.6933 126.897 21.66C127.458 20.7707 128.222 20.0457 129.188 19.485C130.155 18.9243 131.209 18.644 132.349 18.644ZM157.655 26.648C157.655 27.112 157.626 27.5953 157.568 28.098H146.345C146.422 29.1033 146.741 29.8767 147.302 30.418C147.882 30.94 148.587 31.201 149.419 31.201C150.656 31.201 151.516 30.679 152 29.635H157.278C157.007 30.6983 156.514 31.6553 155.799 32.506C155.103 33.3567 154.223 34.0237 153.16 34.507C152.096 34.9903 150.907 35.232 149.593 35.232C148.007 35.232 146.596 34.8937 145.359 34.217C144.121 33.5403 143.155 32.5737 142.459 31.317C141.763 30.0603 141.415 28.591 141.415 26.909C141.415 25.227 141.753 23.7577 142.43 22.501C143.126 21.2443 144.092 20.2777 145.33 19.601C146.567 18.9243 147.988 18.586 149.593 18.586C151.159 18.586 152.551 18.9147 153.769 19.572C154.987 20.2293 155.934 21.167 156.611 22.385C157.307 23.603 157.655 25.024 157.655 26.648ZM152.58 25.343C152.58 24.4923 152.29 23.8157 151.71 23.313C151.13 22.8103 150.405 22.559 149.535 22.559C148.703 22.559 147.998 22.8007 147.418 23.284C146.857 23.7673 146.509 24.4537 146.374 25.343H152.58ZM165.23 21.515C165.81 20.6257 166.535 19.9297 167.405 19.427C168.275 18.905 169.241 18.644 170.305 18.644V23.893H168.942C167.704 23.893 166.776 24.1637 166.158 24.705C165.539 25.227 165.23 26.155 165.23 27.489V35H160.271V18.818H165.23V21.515ZM189.205 18.818L179.055 42.685H173.719L177.431 34.449L170.848 18.818H176.387L180.128 28.939L183.84 18.818H189.205Z" fill="#0B8BCA"/>
</svg>
