<svg width="23" height="23" viewBox="0 0 23 23" fill="none" xmlns="http://www.w3.org/2000/svg">
<path fill-rule="evenodd" clip-rule="evenodd" d="M11.5 21V11.5V2C6.25329 2 2 6.25329 2 11.5C2 16.7467 6.25329 21 11.5 21ZM11.5 0C17.8513 0 23 5.14873 23 11.5C23 14.6663 21.7204 17.5336 19.6502 19.6133C19.644 19.6194 19.6379 19.6256 19.6317 19.6317C19.6233 19.6401 19.6149 19.6485 19.6064 19.6569C17.5274 21.7232 14.6628 23 11.5 23C5.14873 23 0 17.8513 0 11.5C0 5.14873 5.14873 0 11.5 0Z" fill="#122C51"/>
</svg>
