<svg width="56" height="72" viewBox="0 0 56 72" fill="none" xmlns="http://www.w3.org/2000/svg">
<path fill-rule="evenodd" clip-rule="evenodd" d="M55.7 60.4498C55.7 56.1714 53.3046 52.3222 49.4584 50.4103L38.2439 44.8383C37.4227 44.4296 36.9174 43.6144 36.9174 42.706V39.0094C37.1491 38.7188 37.388 38.4003 37.6315 38.0582C39.0717 36.0366 40.2346 33.797 41.0947 31.3887C42.8387 30.4729 43.9609 28.6805 43.9609 26.6667V22C43.9609 20.7915 43.5383 19.6241 42.7869 18.6829V12.7665C42.863 11.9734 43.0863 7.97812 40.1561 4.65642C37.5607 1.71413 33.4147 0.299999 28 0.299999C22.5853 0.299999 18.4393 1.71422 15.8439 4.65525C12.9136 7.97699 13.137 11.9734 13.213 12.7666V18.6829C12.4616 19.6241 12.0391 20.7915 12.0391 22V26.6667C12.0391 28.2223 12.716 29.6766 13.8755 30.6873C14.9426 34.7054 17.0097 37.7694 17.9087 38.9722V42.5975C17.9087 43.468 17.4311 44.2691 16.6581 44.689L6.18602 50.3658C2.55621 52.3343 0.299988 56.1093 0.299988 60.2223V64C0.299988 65.808 1.74113 67.1147 3.58833 68.0537C5.47791 69.0142 8.05374 69.7309 10.8677 70.2641C16.5087 71.333 23.306 71.7 28 71.7C32.694 71.7 39.4913 71.333 45.1322 70.2641C47.9462 69.7309 50.5221 69.0142 52.4116 68.0537C54.2588 67.1147 55.7 65.808 55.7 64V60.4498ZM13.913 18.9375L13.913 12.732C13.8473 12.0903 13.589 8.2695 16.3689 5.11833C13.589 8.2695 13.8473 12.0903 13.913 12.732V18.9375ZM4.04781 60.2223C4.04781 57.481 5.5518 54.9598 7.97653 53.6465L18.4494 47.9693C20.4264 46.8968 21.6565 44.838 21.6565 42.5975V37.6529L21.2209 37.1364L21.2199 37.1352C21.1594 37.0621 18.4117 33.7265 17.3619 29.1841L17.1909 28.4444L16.551 28.0341C16.0658 27.7227 15.7869 27.2099 15.7869 26.6667V22C15.7869 21.5542 15.9743 21.1304 16.3408 20.8003L16.3416 20.7996L16.9609 20.2457V12.6425L16.9476 12.4508L16.9459 12.4359C16.9429 12.41 16.5919 9.46273 18.6594 7.11907C20.412 5.13235 23.4878 4.03333 28 4.03333C32.496 4.03333 35.5664 5.1246 37.3216 7.09807C39.3654 9.39424 39.0629 12.3502 39.0524 12.4527L39.0521 12.4553L39.0497 12.484L39.0387 20.2446L39.659 20.8014C40.0253 21.13 40.213 21.5537 40.213 22V26.6667C40.213 27.367 39.752 27.9941 39.0387 28.2129L38.1062 28.4976L37.8053 29.4227C37.041 31.7853 35.9539 33.9627 34.5745 35.8969L34.5736 35.8981C34.2345 36.3759 33.911 36.7898 33.638 37.0979L33.1696 37.6289V42.706C33.1696 45.0384 34.4756 47.1365 36.5703 48.1781L47.7847 53.75C50.3586 55.029 51.9522 57.5941 51.9522 60.4498V63.95C51.9365 63.9748 51.8933 64.0344 51.7857 64.1286C51.5835 64.3059 51.244 64.524 50.7402 64.7661C49.7386 65.2474 48.2067 65.7671 46.1493 66.2452C42.0424 67.1995 35.934 67.9667 28 67.9667C20.066 67.9667 13.9575 67.1995 9.85066 66.2452C7.7933 65.7671 6.26134 65.2474 5.25976 64.7661C4.75593 64.524 4.41646 64.3059 4.21423 64.1286C4.1067 64.0344 4.06344 63.9748 4.04781 63.95V60.2223Z" fill="white"/>
</svg>
