<svg width="23" height="21" viewBox="0 0 23 21" fill="none" xmlns="http://www.w3.org/2000/svg">
<path d="M19.375 6H18.25V0.375H4.75V6H3.625C1.7575 6 0.25 7.5075 0.25 9.375V16.125H4.75V20.625H18.25V16.125H22.75V9.375C22.75 7.5075 21.2425 6 19.375 6ZM7 2.625H16V6H7V2.625ZM16 18.375H7V13.875H16V18.375ZM18.25 13.875V11.625H4.75V13.875H2.5V9.375C2.5 8.75625 3.00625 8.25 3.625 8.25H19.375C19.9937 8.25 20.5 8.75625 20.5 9.375V13.875H18.25Z" fill="#122C51"/>
<path d="M18.25 11.0625C18.8713 11.0625 19.375 10.5588 19.375 9.9375C19.375 9.31618 18.8713 8.8125 18.25 8.8125C17.6287 8.8125 17.125 9.31618 17.125 9.9375C17.125 10.5588 17.6287 11.0625 18.25 11.0625Z" fill="#122C51"/>
</svg>
