<svg width="24" height="16" viewBox="0 0 24 16" fill="none" xmlns="http://www.w3.org/2000/svg">
<path d="M2 15.5H22C22.6875 15.5 23.25 14.9375 23.25 14.25C23.25 13.5625 22.6875 13 22 13H2C1.3125 13 0.75 13.5625 0.75 14.25C0.75 14.9375 1.3125 15.5 2 15.5ZM2 9.25H22C22.6875 9.25 23.25 8.6875 23.25 8C23.25 7.3125 22.6875 6.75 22 6.75H2C1.3125 6.75 0.75 7.3125 0.75 8C0.75 8.6875 1.3125 9.25 2 9.25ZM0.75 1.75C0.75 2.4375 1.3125 3 2 3H22C22.6875 3 23.25 2.4375 23.25 1.75C23.25 1.0625 22.6875 0.5 22 0.5H2C1.3125 0.5 0.75 1.0625 0.75 1.75Z" fill="#122C51"/>
</svg>
