<svg xmlns="http://www.w3.org/2000/svg" viewBox="0 0 220 80.91"><defs><style>.cls-1{fill:#0082bd;}.cls-2{fill:#04a8e7;}.cls-3{fill:#005595;}.cls-4{fill:#1c1c1c;}.cls-5{fill:#013f6f;}</style></defs><g id="Warstwa_2" data-name="Warstwa 2"><g id="Warstwa_1-2" data-name="Warstwa 1"><path class="cls-1" d="M21,6.27C13.42,8.21,7.75,12.46,5.51,15.45,7,9,12.44,2.68,18.46.45S25.94,5,21,6.27Z"/><path class="cls-2" d="M40.72,38.7c.89,5.79,3.62,10.34,5.67,12.24A16.64,16.64,0,0,1,36.22,40.15C35,35.46,40.14,34.9,40.72,38.7Z"/><path class="cls-3" d="M15.47,24.49C10,36,14,50,22.45,56s16,8.46,26.91,7.5c11.46-1,22.93-8,22.93-8s-5,9.5-20.44,14c-9.76,2.85-25.89,4-38.87-5S-4.9,34,6,19.49c4.13-5.5,11.26-10,16.44-11,22.43-4,26.41,10,22.93,17-1.83,3.34-8.61,8-15.45,4C24,26,25.94,18,28.93,16c0,0-2.49.33-3.49.5S19.46,17.49,15.47,24.49Z"/><path class="cls-1" d="M35,47.56C44.38,59.49,59.19,58.23,63.49,56,51.24,62.9,31.94,61.49,21,48.49c-5.06-6-.38-11.61,3.49-12C29.45,36,31.44,43.07,35,47.56Z"/><path class="cls-4" d="M72.71,26.59V49H69.3L57,33.83V49H52.88V26.59h3.41L68.6,41.76V26.59Z"/><path class="cls-4" d="M84.82,31.71a8.16,8.16,0,0,1,5.74,1.83c1.34,1.19,2,3,2,5.44V49H88.81V46.91a4.67,4.67,0,0,1-2.11,1.73,8.11,8.11,0,0,1-3.25.58,8.27,8.27,0,0,1-3.35-.64,5.42,5.42,0,0,1-2.23-1.83,4.78,4.78,0,0,1-.77-2.65,4.51,4.51,0,0,1,1.69-3.68Q80.51,39,84.18,39h4.4v-.26A3.49,3.49,0,0,0,87.5,36a4.56,4.56,0,0,0-3.16-1,9.26,9.26,0,0,0-2.84.45,6.93,6.93,0,0,0-2.33,1.25l-1.56-2.91a9.49,9.49,0,0,1,3.22-1.57A14.09,14.09,0,0,1,84.82,31.71Zm-.54,14.6a5.09,5.09,0,0,0,2.64-.68,3.8,3.8,0,0,0,1.66-2v-2H84.47c-2.3,0-3.45.75-3.45,2.27a2,2,0,0,0,.87,1.73A4,4,0,0,0,84.28,46.31Z"/><path class="cls-4" d="M133.07,31.91,126.78,49H123l-4.4-11.77L114.09,49h-3.83L104,31.91h3.77l4.49,12.6L117,31.91h3.35l4.59,12.67,4.63-12.67Z"/><path class="cls-4" d="M143,49.22a9.7,9.7,0,0,1-4.66-1.12A8.24,8.24,0,0,1,135.09,45a9,9,0,0,1-1.15-4.54,8.77,8.77,0,0,1,1.15-4.51,8.24,8.24,0,0,1,3.25-3.11A9.7,9.7,0,0,1,143,31.71a9.82,9.82,0,0,1,4.69,1.12,8.1,8.1,0,0,1,3.22,3.11,8.69,8.69,0,0,1,1.18,4.51A8.88,8.88,0,0,1,150.91,45a8.1,8.1,0,0,1-3.22,3.11A9.82,9.82,0,0,1,143,49.22Zm0-3.43a4.85,4.85,0,0,0,3.63-1.47,5.29,5.29,0,0,0,1.44-3.87,5.29,5.29,0,0,0-1.44-3.87,5.23,5.23,0,0,0-7.27,0,5.39,5.39,0,0,0-1.4,3.87,5.39,5.39,0,0,0,1.4,3.87A4.88,4.88,0,0,0,143,45.79Z"/><path class="cls-4" d="M172.58,25.25V49h-3.83v-2.2a6.23,6.23,0,0,1-2.45,1.82,8,8,0,0,1-3.19.61,9,9,0,0,1-4.44-1.09,8,8,0,0,1-3.06-3.07,9.41,9.41,0,0,1-1.11-4.61,9.24,9.24,0,0,1,1.11-4.58,8,8,0,0,1,3.06-3.07,9.12,9.12,0,0,1,4.44-1.09,8.17,8.17,0,0,1,3.09.58A6.13,6.13,0,0,1,168.59,34V25.25Zm-9,20.54a5.2,5.2,0,0,0,2.58-.64A4.84,4.84,0,0,0,168,43.27a6.27,6.27,0,0,0,0-5.64,4.63,4.63,0,0,0-1.82-1.85,5.32,5.32,0,0,0-5.17,0,4.63,4.63,0,0,0-1.82,1.85,6.27,6.27,0,0,0,0,5.64A4.84,4.84,0,0,0,161,45.15,5.21,5.21,0,0,0,163.59,45.79Z"/><path class="cls-4" d="M191.1,45.79V49H176.39V46.47l9.35-11.36h-9.16v-3.2h14.26v2.52l-9.38,11.36Z"/><path class="cls-4" d="M194.77,31.91h4V49h-4Zm2-2.82a2.59,2.59,0,0,1-1.82-.67,2.3,2.3,0,0,1-.73-1.73A2.21,2.21,0,0,1,195,25a2.53,2.53,0,0,1,1.82-.7,2.59,2.59,0,0,1,1.82.67,2.07,2.07,0,0,1,.73,1.63,2.46,2.46,0,0,1-.73,1.8A2.5,2.5,0,0,1,196.78,29.09Z"/><path class="cls-4" d="M220,40.55c0,.27,0,.67-.06,1.18H206.57a4.76,4.76,0,0,0,1.82,3,6.73,6.73,0,0,0,8.32-.77l2.14,2.46a7.13,7.13,0,0,1-2.9,2.08,11.43,11.43,0,0,1-8.9-.41A8.24,8.24,0,0,1,203.73,45a9.6,9.6,0,0,1,0-9,8.22,8.22,0,0,1,3.16-3.14,9.22,9.22,0,0,1,4.53-1.12,8.76,8.76,0,0,1,4.43,1.12,7.52,7.52,0,0,1,3.06,3.11A9.18,9.18,0,0,1,220,40.55Zm-8.61-5.64a4.79,4.79,0,0,0-3.25,1.16,4.67,4.67,0,0,0-1.6,3h9.66a4.67,4.67,0,0,0-4.81-4.16Z"/><path class="cls-5" d="M62.83,68.6C49.38,78.49,32,77.33,16.49,70.49c9.47,6.5,14,8.5,22.42,10s21.21-.91,32.4-10c20.93-17,23.42-13.62,39.37-10-13-6.5-17.25-6.5-21.43-6S77.55,57.77,62.83,68.6Z"/></g></g></svg>