<svg width="85" height="56" viewBox="0 0 85 56" fill="none" xmlns="http://www.w3.org/2000/svg">
<path d="M71.9777 0H12.7019V39.5168H71.9777V0Z" fill="#034EA2"/>
<path d="M41.0764 8.61279L42.3301 7.69924L43.5792 8.61279L43.102 7.13637L44.3738 6.22421H42.8079L42.3301 4.72974L41.8525 6.22421H40.2812L41.5492 7.13637L41.0764 8.61279Z" fill="#FFF200"/>
<path d="M34.6021 10.3489L35.8558 9.43551L37.1057 10.3489L36.6285 8.87442L37.8998 7.96067H36.3334L35.853 6.46283L35.3746 7.96444L33.8125 7.96067L35.0803 8.87442L34.6021 10.3489Z" fill="#FFF200"/>
<path d="M31.1164 11.2122L30.6392 12.7112L29.0725 12.7079L30.3405 13.6212L29.867 15.0968L31.1164 14.1869L32.3701 15.0968L31.8933 13.6212L33.165 12.7079H31.5983L31.1164 11.2122Z" fill="#FFF200"/>
<path d="M29.3827 20.6437L30.6287 21.5614L30.1544 20.085L31.427 19.1729H29.8605L29.3827 17.675L28.8974 19.1762L27.3345 19.1729L28.6023 20.085L28.1292 21.5614L29.3827 20.6437Z" fill="#FFF200"/>
<path d="M31.5979 25.6552L31.1159 24.1619L30.6391 25.6552H29.072L30.3404 26.5729L29.8662 28.0446L31.1159 27.1304L32.369 28.0446L31.8928 26.5729L33.1645 25.6552H31.5979Z" fill="#FFF200"/>
<path d="M36.3401 30.401L35.8629 28.9081L35.3811 30.4052L33.8145 30.401L35.087 31.3147L34.6134 32.7896L35.8629 31.876L37.1164 32.7896L36.6394 31.3147L37.9111 30.401H36.3401Z" fill="#FFF200"/>
<path d="M42.8069 32.1202L42.3289 30.6222L41.8515 32.1202H40.2812L41.5534 33.031L41.0752 34.5084L42.3289 33.595L43.582 34.5084L43.1004 33.031L44.3775 32.1202H42.8069Z" fill="#FFF200"/>
<path d="M49.2727 30.401L48.7911 28.9081L48.3093 30.4052L46.75 30.401L48.0158 31.3147L47.5412 32.7896L48.7911 31.876L50.0444 32.7896L49.5668 31.3147L50.8437 30.401H49.2727Z" fill="#FFF200"/>
<path d="M54.0196 25.6552L53.5379 24.1619L53.0607 25.6552H51.4966L52.7661 26.5729L52.284 28.0446L53.5379 27.1304L54.7916 28.0446L54.3132 26.5729L55.5865 25.6552H54.0196Z" fill="#FFF200"/>
<path d="M57.3012 19.1549H55.7344L55.2607 17.657L54.7758 19.1549H53.2151L54.4849 20.068L54.0027 21.5433L55.2607 20.6293L56.5105 21.5433L56.0335 20.068L57.3012 19.1549Z" fill="#FFF200"/>
<path d="M52.285 15.0744L53.5391 14.1658L54.792 15.0744L54.314 13.5996L55.5865 12.6908H54.0201L53.5391 11.1902L53.0619 12.6948L51.4978 12.6908L52.767 13.5996L52.285 15.0744Z" fill="#FFF200"/>
<path d="M48.8097 6.46323L48.3367 7.96504L46.7659 7.96067L48.0376 8.87442L47.564 10.3528L48.8177 9.43452L50.0632 10.3528L49.5894 8.87442L50.8576 7.96067H49.2919L48.8097 6.46323Z" fill="#FFF200"/>
<path d="M3.19548 53.7159C2.63942 53.7159 2.16164 53.635 1.76212 53.4745C1.36293 53.3144 1.03204 53.0891 0.769458 52.7987C0.506871 52.5093 0.313404 52.169 0.188075 51.7771C0.0627463 51.3853 0 50.9544 0 50.4845V45.3973H1.49218V50.3439C1.49218 50.7113 1.5332 51.0269 1.61555 51.2895C1.69774 51.5516 1.81555 51.7647 1.96784 51.9293C2.12079 52.0938 2.30069 52.2154 2.50821 52.294C2.7159 52.3724 2.94891 52.4111 3.20757 52.4111C3.46575 52.4111 3.70121 52.3726 3.91232 52.294C4.12393 52.2154 4.30563 52.0936 4.45923 51.9293C4.61152 51.7647 4.72933 51.5516 4.81152 51.2895C4.89371 51.0269 4.93489 50.7113 4.93489 50.3439V45.3973H6.42691V50.4845C6.42691 50.9544 6.36237 51.3855 6.23295 51.7771C6.10337 52.1688 5.90795 52.5093 5.6452 52.7987C5.38261 53.0889 5.04796 53.3142 4.64093 53.4745C4.23357 53.635 3.75137 53.7159 3.19548 53.7159Z" fill="black" fill-opacity="0.87"/>
<path d="M8.17651 47.7593C8.45119 47.681 8.80724 47.6062 9.24581 47.5362C9.68471 47.4651 10.17 47.4298 10.703 47.4298C11.2039 47.4298 11.6228 47.499 11.9599 47.6354C12.297 47.7728 12.565 47.965 12.7647 48.2111C12.9643 48.458 13.1054 48.7562 13.1877 49.1044C13.2699 49.4526 13.3112 49.8348 13.3112 50.25V53.704H11.8895V50.4734C11.8895 50.1443 11.8678 49.8642 11.8248 49.6328C11.7816 49.4021 11.7112 49.214 11.6137 49.0688C11.5153 48.9243 11.3823 48.8189 11.2138 48.7514C11.045 48.6853 10.8396 48.6524 10.5975 48.6524C10.4171 48.6524 10.2292 48.6637 10.0331 48.6875C9.83765 48.7106 9.69272 48.7302 9.59843 48.7459V53.704H8.17668V47.7593H8.17651Z" fill="black" fill-opacity="0.87"/>
<path d="M16.5651 45.762C16.5651 46.0275 16.4792 46.2396 16.3073 46.3958C16.1346 46.5528 15.9308 46.6313 15.6958 46.6313C15.4534 46.6313 15.2452 46.5528 15.0731 46.3958C14.9011 46.2396 14.8149 46.0275 14.8149 45.762C14.8149 45.4881 14.9011 45.2721 15.0731 45.1149C15.2452 44.9588 15.4532 44.8802 15.6958 44.8802C15.9308 44.8802 16.1347 44.9587 16.3073 45.1149C16.479 45.2721 16.5651 45.4881 16.5651 45.762ZM16.4127 53.7038H14.9909V47.5594H16.4127V53.7038Z" fill="black" fill-opacity="0.87"/>
<path d="M20.1958 47.2889C20.6652 47.2889 21.0605 47.3478 21.3819 47.4651C21.7028 47.5829 21.9597 47.7474 22.1515 47.9586C22.3432 48.1705 22.4803 48.427 22.5625 48.728C22.645 49.0295 22.6858 49.3607 22.6858 49.7207V53.4453C22.4667 53.4925 22.1353 53.5495 21.6932 53.6154C21.2512 53.6822 20.7513 53.7158 20.1959 53.7158C19.8276 53.7158 19.4907 53.6802 19.1851 53.6098C18.8796 53.5392 18.6186 53.4261 18.4036 53.2691C18.1879 53.1127 18.0196 52.9093 17.8985 52.6588C17.7773 52.4077 17.7168 52.0983 17.7168 51.73C17.7168 51.3782 17.7849 51.0799 17.9224 50.8367C18.059 50.5947 18.2449 50.3967 18.4804 50.2436C18.7152 50.0913 18.9871 49.9815 19.2966 49.9151C19.606 49.8488 19.9294 49.815 20.2659 49.815C20.4229 49.815 20.5869 49.8253 20.7595 49.8441C20.9316 49.8642 21.1157 49.8975 21.3121 49.9441V49.7092C21.3121 49.5447 21.2923 49.3878 21.2531 49.2393C21.2139 49.0906 21.1451 48.9586 21.0476 48.8457C20.9494 48.7328 20.8201 48.6444 20.6597 48.5811C20.499 48.519 20.2972 48.4873 20.0549 48.4873C19.7258 48.4873 19.4239 48.5105 19.1502 48.5579C18.8755 48.6047 18.6526 48.6599 18.4805 48.7225L18.3041 47.5713C18.4845 47.5081 18.7461 47.446 19.0912 47.3831C19.4356 47.3208 19.8039 47.2889 20.1958 47.2889ZM20.3129 52.5876C20.7513 52.5876 21.0842 52.564 21.3118 52.5168V50.9431C21.2332 50.9189 21.1191 50.8954 20.9705 50.8722C20.8219 50.8486 20.6574 50.8364 20.4768 50.8364C20.3209 50.8364 20.1619 50.8486 20.0012 50.8722C19.841 50.8954 19.6961 50.9384 19.5667 51.0014C19.4374 51.0642 19.334 51.1526 19.2556 51.2655C19.177 51.3795 19.1379 51.522 19.1379 51.6946C19.1379 52.0312 19.2441 52.2639 19.4552 52.3936C19.6665 52.523 19.9526 52.5876 20.3129 52.5876Z" fill="black" fill-opacity="0.87"/>
<path d="M27.092 53.7038V45.562H32.3199V46.8192H28.572V48.828H31.9088V50.062H28.572V52.4465H32.6016V53.7038H27.092Z" fill="black" fill-opacity="0.87"/>
<path d="M38.6758 53.3868C38.4015 53.4569 38.0454 53.5297 37.6065 53.6041C37.1679 53.6783 36.6861 53.7158 36.1612 53.7158C35.6681 53.7158 35.2545 53.6448 34.9218 53.5039C34.589 53.3635 34.3228 53.1675 34.1236 52.9166C33.9233 52.666 33.7801 52.366 33.6942 52.0178C33.6081 51.6696 33.5649 51.2877 33.5649 50.8723V47.4296H34.9865V50.6493C34.9865 51.3068 35.0825 51.7771 35.2741 52.0593C35.4663 52.3408 35.8014 52.4818 36.279 52.4818C36.4509 52.4818 36.6333 52.4745 36.8255 52.4581C37.0175 52.4425 37.1599 52.4228 37.2539 52.3996V47.4296H38.6757V53.3868H38.6758Z" fill="black" fill-opacity="0.87"/>
<path d="M43.9155 48.8392C43.798 48.8009 43.6356 48.7598 43.4281 48.7168C43.2206 48.6738 42.9794 48.6521 42.7054 48.6521C42.5485 48.6521 42.382 48.6676 42.2058 48.6988C42.0297 48.7297 41.9062 48.7576 41.8361 48.7812V53.7036H40.4143V47.8524C40.6883 47.7511 41.0311 47.655 41.4428 47.565C41.8539 47.4753 42.3099 47.4295 42.8109 47.4295C42.9049 47.4295 43.0147 47.436 43.14 47.4476C43.2653 47.4592 43.3905 47.4753 43.5162 47.4942C43.6413 47.5145 43.7627 47.5378 43.8805 47.565C43.9979 47.5921 44.0917 47.6181 44.1622 47.6416L43.9155 48.8392Z" fill="black" fill-opacity="0.87"/>
<path d="M50.6363 50.4731C50.6363 50.9587 50.565 51.4012 50.4245 51.8004C50.2833 52.1994 50.0836 52.5406 49.8255 52.8225C49.5668 53.1045 49.2557 53.3241 48.891 53.4802C48.5272 53.6372 48.1253 53.7156 47.687 53.7156C47.2488 53.7156 46.8486 53.6372 46.4886 53.4802C46.1283 53.3241 45.8187 53.1043 45.5604 52.8225C45.3019 52.5406 45.1004 52.1994 44.9554 51.8004C44.8105 51.4012 44.7378 50.9587 44.7378 50.4731C44.7378 49.987 44.8105 49.5468 44.9554 49.1513C45.1004 48.7559 45.3038 48.4167 45.5659 48.1351C45.8285 47.8525 46.1398 47.635 46.5001 47.4827C46.8607 47.3304 47.2561 47.2533 47.687 47.2533C48.1181 47.2533 48.515 47.3306 48.8797 47.4827C49.2436 47.6351 49.5549 47.8525 49.8135 48.1351C50.072 48.4167 50.2735 48.7559 50.4183 49.1513C50.5632 49.5468 50.6363 49.987 50.6363 50.4731ZM49.1789 50.4731C49.1789 49.8618 49.0473 49.3785 48.7854 49.0224C48.5228 48.6657 48.1573 48.4873 47.687 48.4873C47.2169 48.4873 46.8509 48.6659 46.5885 49.0224C46.3259 49.3785 46.1947 49.8618 46.1947 50.4731C46.1947 51.0917 46.3259 51.5811 46.5885 51.9411C46.8507 52.3019 47.2169 52.4818 47.687 52.4818C48.1573 52.4818 48.5227 52.3019 48.7854 51.9411C49.0475 51.5811 49.1789 51.0917 49.1789 50.4731Z" fill="black" fill-opacity="0.87"/>
<path d="M57.5671 50.6372C57.5671 51.1075 57.5067 51.5379 57.3853 51.9294C57.2637 52.3211 57.0897 52.6586 56.8625 52.9399C56.6354 53.2224 56.3514 53.4415 56.011 53.598C55.6697 53.7547 55.2842 53.833 54.8537 53.833C54.5641 53.833 54.2978 53.7979 54.0546 53.7271C53.8115 53.6569 53.612 53.5784 53.4554 53.4923V55.877H52.0337V47.759C52.3234 47.6808 52.6799 47.6059 53.103 47.536C53.526 47.4649 53.9723 47.4296 54.4426 47.4296C54.9275 47.4296 55.3622 47.5043 55.7463 47.653C56.13 47.8015 56.4568 48.0156 56.7274 48.2932C56.9975 48.5718 57.2052 48.9084 57.3501 49.3037C57.4951 49.6991 57.5671 50.144 57.5671 50.6372ZM56.1104 50.6611C56.1104 50.0262 55.9676 49.5326 55.682 49.1803C55.3957 48.8279 54.9362 48.652 54.3014 48.652C54.168 48.652 54.0295 48.6576 53.8845 48.6693C53.7396 48.681 53.5963 48.7063 53.4554 48.7455V52.2583C53.5808 52.3444 53.747 52.4248 53.9545 52.4992C54.1622 52.5745 54.3836 52.6109 54.6182 52.6109C55.1355 52.6109 55.5135 52.4348 55.7522 52.0828C55.9914 51.7299 56.1104 51.2558 56.1104 50.6611Z" fill="black" fill-opacity="0.87"/>
<path d="M58.6248 50.5198C58.6248 49.9795 58.705 49.5055 58.8661 49.0981C59.0258 48.6911 59.2398 48.3522 59.5063 48.0821C59.7723 47.8118 60.0774 47.608 60.4222 47.4709C60.7671 47.3342 61.1196 47.2654 61.4795 47.2654C62.3253 47.2654 62.9853 47.528 63.4592 48.0528C63.933 48.5773 64.1703 49.3605 64.1703 50.4024C64.1703 50.4806 64.1678 50.569 64.1641 50.6664C64.1605 50.7648 64.1544 50.853 64.1464 50.9311H60.0932C60.1326 51.4246 60.3063 51.8065 60.6163 52.0766C60.9251 52.3462 61.374 52.4816 61.9613 52.4816C62.3057 52.4816 62.6207 52.4509 62.9067 52.3874C63.1928 52.3253 63.418 52.2583 63.5825 52.1883L63.7706 53.3509C63.6922 53.3902 63.5843 53.4315 63.4474 53.4743C63.3105 53.5174 63.1534 53.5568 62.9776 53.5921C62.801 53.6274 62.6114 53.6568 62.4077 53.68C62.2039 53.7036 61.9961 53.7157 61.7849 53.7157C61.2447 53.7157 60.7746 53.6348 60.3754 53.4743C59.9759 53.3142 59.6462 53.0906 59.3882 52.805C59.1298 52.5186 58.9375 52.1816 58.8123 51.7945C58.6872 51.407 58.6248 50.9821 58.6248 50.5198ZM62.7484 49.8855C62.7484 49.6896 62.7207 49.5037 62.6658 49.327C62.6114 49.1514 62.5309 48.9984 62.4251 48.869C62.3196 48.7399 62.1902 48.638 62.0372 48.5638C61.8849 48.4896 61.7028 48.4518 61.491 48.4518C61.2717 48.4518 61.08 48.4932 60.9156 48.5754C60.7513 48.6576 60.612 48.7651 60.4988 48.8984C60.3848 49.0314 60.2968 49.1844 60.2341 49.3571C60.1717 49.5291 60.1285 49.7053 60.1053 49.8855H62.7484Z" fill="black" fill-opacity="0.87"/>
<path d="M64.8168 55.8886C64.7147 55.8886 64.5716 55.8786 64.3874 55.8595C64.2031 55.8398 64.0408 55.803 63.8997 55.7478L64.0877 54.585C64.2604 54.6397 64.468 54.6669 64.7098 54.6669C65.0397 54.6669 65.2703 54.5709 65.4038 54.3793C65.5368 54.1866 65.6038 53.899 65.6038 53.5155V47.5592H67.0245V53.5391C67.0245 54.3384 66.8347 54.9296 66.4554 55.3131C66.075 55.6965 65.5288 55.8886 64.8168 55.8886ZM67.1777 45.762C67.1777 46.0275 67.0919 46.2396 66.9193 46.3958C66.7468 46.5528 66.543 46.6313 66.3084 46.6313C66.0654 46.6313 65.8579 46.5528 65.686 46.3958C65.5128 46.2396 65.4268 46.0275 65.4268 45.762C65.4268 45.4881 65.5128 45.2721 65.686 45.1149C65.8579 44.9588 66.0652 44.8802 66.3084 44.8802C66.5432 44.8802 66.7469 44.9587 66.9193 45.1149C67.0917 45.2721 67.1777 45.4881 67.1777 45.762Z" fill="black" fill-opacity="0.87"/>
<path d="M70.3026 52.5406C70.6789 52.5406 70.9531 52.4959 71.125 52.4057C71.2971 52.3155 71.3837 52.1612 71.3837 51.9411C71.3837 51.7378 71.2914 51.5695 71.1074 51.4359C70.9232 51.303 70.6201 51.1583 70.1971 51.0016C69.9391 50.9078 69.7018 50.8074 69.4863 50.702C69.2706 50.5965 69.0846 50.4731 68.9281 50.3318C68.7712 50.1908 68.6482 50.0205 68.5583 49.8205C68.468 49.6208 68.4229 49.3764 68.4229 49.0862C68.4229 48.5221 68.6304 48.0781 69.0459 47.7528C69.461 47.4281 70.0244 47.2654 70.7373 47.2654C71.0976 47.2654 71.4427 47.299 71.7711 47.3654C72.1002 47.4322 72.3471 47.4968 72.5117 47.5593L72.2533 48.7102C72.0965 48.6401 71.8963 48.5755 71.6541 48.5165C71.4115 48.4577 71.1291 48.4286 70.8084 48.4286C70.5188 48.4286 70.283 48.4773 70.103 48.5754C69.9231 48.6737 69.833 48.8241 69.833 49.0278C69.833 49.1293 69.8507 49.2197 69.886 49.2981C69.9213 49.3764 69.9817 49.4484 70.068 49.5148C70.1541 49.5816 70.2675 49.6486 70.4089 49.7149C70.5494 49.7819 70.7219 49.8504 70.9257 49.9208C71.2621 50.046 71.5484 50.1694 71.7834 50.2909C72.0182 50.4123 72.2125 50.5489 72.3648 50.7022C72.5177 50.8547 72.6295 51.0295 72.6996 51.2248C72.7705 51.4204 72.8056 51.6557 72.8056 51.9295C72.8056 52.5171 72.5881 52.962 72.1535 53.2634C71.7188 53.5645 71.0976 53.716 70.2914 53.716C69.7507 53.716 69.316 53.671 68.9871 53.5805C68.6583 53.4906 68.4273 53.4183 68.2939 53.3637L68.5407 52.1764C68.7521 52.2632 69.0047 52.3447 69.299 52.4232C69.592 52.5014 69.9266 52.5406 70.3026 52.5406Z" fill="black" fill-opacity="0.87"/>
<path d="M75.4838 49.9552C75.664 49.7681 75.856 49.5664 76.0598 49.3504C76.2629 49.1355 76.4627 48.9194 76.659 48.7047C76.8541 48.4898 77.0405 48.2816 77.217 48.0821C77.3925 47.8823 77.5438 47.7081 77.6691 47.5594H79.3494C78.9577 47.9978 78.5443 48.452 78.1096 48.9218C77.675 49.3921 77.2385 49.8506 76.7996 50.2965C77.0346 50.4928 77.2813 50.729 77.5394 51.0075C77.7984 51.2854 78.0488 51.5813 78.2918 51.8946C78.5338 52.2083 78.7616 52.5212 78.973 52.8345C79.1846 53.1475 79.3606 53.4373 79.5015 53.7038H77.8572C77.7158 53.4616 77.5536 53.2064 77.3693 52.9399C77.1853 52.674 76.9872 52.4157 76.7758 52.1652C76.5642 51.9142 76.349 51.6771 76.1295 51.4537C75.9107 51.2305 75.695 51.0408 75.4836 50.8848V53.7039H74.062V45.7968L75.4836 45.562V49.9552H75.4838Z" fill="black" fill-opacity="0.87"/>
<path d="M82.5092 47.2889C82.9795 47.2889 83.3749 47.3478 83.696 47.4651C84.0169 47.5829 84.2736 47.7474 84.4656 47.9586C84.6571 48.1705 84.7944 48.427 84.8764 48.728C84.9589 49.0295 85 49.3607 85 49.7207V53.4453C84.7807 53.4925 84.45 53.5495 84.0073 53.6154C83.5651 53.6822 83.0654 53.7158 82.5094 53.7158C82.1416 53.7158 81.8046 53.6802 81.4991 53.6098C81.1935 53.5394 80.9327 53.4261 80.7177 53.2691C80.5023 53.1127 80.3335 52.9093 80.2126 52.6588C80.0912 52.4077 80.0308 52.0983 80.0308 51.73C80.0308 51.3782 80.0989 51.0799 80.236 50.8367C80.3729 50.5947 80.5589 50.3967 80.7942 50.2436C81.0291 50.0913 81.3012 49.9815 81.6105 49.9151C81.92 49.8488 82.2434 49.815 82.5798 49.815C82.7369 49.815 82.9012 49.8253 83.0735 49.8441C83.2454 49.8642 83.4295 49.8975 83.6259 49.9441V49.7092C83.6259 49.5447 83.606 49.3878 83.5669 49.2393C83.5277 49.0906 83.4589 48.9586 83.3614 48.8457C83.2632 48.7328 83.1342 48.6444 82.9735 48.5811C82.8128 48.519 82.6114 48.4873 82.3687 48.4873C82.0396 48.4873 81.7377 48.5105 81.464 48.5579C81.1899 48.6047 80.9664 48.6599 80.7942 48.7225L80.6179 47.5713C80.7983 47.5081 81.0604 47.446 81.405 47.3831C81.7496 47.3208 82.1179 47.2889 82.5092 47.2889ZM82.6269 52.5876C83.0655 52.5876 83.3981 52.564 83.6258 52.5168V50.9431C83.5472 50.9189 83.4333 50.8954 83.2844 50.8722C83.1359 50.8486 82.9713 50.8364 82.7908 50.8364C82.6349 50.8364 82.4761 50.8486 82.3151 50.8722C82.1548 50.8954 82.0099 50.9384 81.8805 51.0014C81.7515 51.0642 81.6478 51.1526 81.5693 51.2655C81.4907 51.3795 81.4517 51.522 81.4517 51.6946C81.4517 52.0312 81.5579 52.2639 81.7692 52.3936C81.9805 52.523 82.2666 52.5876 82.6269 52.5876Z" fill="black" fill-opacity="0.87"/>
</svg>
